<svg id="Слой_1" data-name="Слой 1" xmlns="http://www.w3.org/2000/svg" viewBox="0 0 725 636.44">
  <defs>
    <style>.cls-1,.cls-2{fill:none;stroke-miterlimit:10;}.cls-1{stroke:#f7f7f7;stroke-width:6px;}.cls-2{stroke:#f4f4f4;stroke-linecap:round;stroke-width:12px;}</style>
  </defs>
  <title>D</title>
  <path class="cls-1" d="M291,87.06c-32.68,0-60.15,8.35-83.23,23.09C96.64,181.1,87,400.25,87,549.56c0,180.32,154,137.5,344,137.5,142.2,0,264.25,24,316.64-39.55,17.62-21.35,27.36-52.59,27.36-98C775,369.24,481,87.06,291,87.06Zm81.72,93C489.84,180,671,353.93,671,465.06S576.12,549.8,459,549.8s-212,26.39-212-84.74S255.67,180,372.75,180Z" transform="translate(-84.03 -58.06)" />
  <path class="cls-2" d="M319,64.06c-47.05,0-83.31,17.31-111.23,46.09C123,197.57,115,390.9,115,526.56c0,180.32,154,137.5,344,137.5,120.94,0,227.31,17.35,288.64-16.55,35-19.36,55.36-55.42,55.36-121C803,346.24,509,64.06,319,64.06ZM459,549.8c-117.08,0-212,26.39-212-84.74s8.64-285,125.72-285S671,353.93,671,465.06,576.12,549.8,459,549.8Z" transform="translate(-84.03 -58.06)" />
</svg>