<svg id="Слой_1" data-name="Слой 1" xmlns="http://www.w3.org/2000/svg" xmlns:xlink="http://www.w3.org/1999/xlink" viewBox="0 0 716 627.44">
  <defs>
    <style>.cls-1{fill:url(#Безымянный_градиент_14);}.cls-2{fill:#2b6bc9;}.cls-3{opacity:0.42;fill:url(#Безымянный_градиент_14-2);}</style>
    <linearGradient id="Безымянный_градиент_14" x1="75.5" y1="189.42" x2="616.93" y2="730.85" gradientUnits="userSpaceOnUse">
      <stop offset="0" stop-color="#fff" />
      <stop offset="1" stop-color="#2b6bc9" />
    </linearGradient>
    <linearGradient id="Безымянный_градиент_14-2" x1="168.81" y1="110.9" x2="705.34" y2="647.44" xlink:href="#Безымянный_градиент_14" />
  </defs>
  <title>d_logo</title>
  <path class="cls-1" d="M255,75.06c-32.68,0-60.15,8.35-83.23,23.09C60.64,169.1,51,388.25,51,537.56c0,180.32,154,137.5,344,137.5,142.2,0,264.25,24,316.64-39.55,17.62-21.35,27.36-52.59,27.36-98C739,357.24,445,75.06,255,75.06Zm81.72,93C453.84,168,635,341.93,635,453.06S540.12,537.8,423,537.8s-212,26.39-212-84.74S219.67,168,336.75,168Z" transform="translate(-51.03 -52.06)" />
  <path class="cls-2" d="M283,52.06c-47.05,0-83.31,17.31-111.23,46.09C87,185.57,79,378.9,79,514.56c0,180.32,154,137.5,344,137.5,120.94,0,227.31,17.35,288.64-16.55,35-19.36,55.36-55.42,55.36-121C767,334.24,473,52.06,283,52.06ZM423,537.8c-117.08,0-212,26.39-212-84.74s8.64-285,125.72-285S635,341.93,635,453.06,540.12,537.8,423,537.8Z" transform="translate(-51.03 -52.06)" />
  <path class="cls-3" d="M767,514.56c0-180.32-294-462.5-484-462.5-27.53,0-51.37,5.94-72,16.62,0,0,397,293.38,277,471.85,0,0-40.24,57.5-100.55,112,11.7-.28,23.57-.45,35.58-.45C613,652.06,767,694.88,767,514.56Z" transform="translate(-51.03 -52.06)" />
</svg>